# Wavefront OBJ file
# Exported by Misfit Model 3D 1.3.8
# Tue Aug 18 08:10:51 2015

mtllib ohnoes.mtl

# 48 Vertices
v -4.310892 0.502736 -0.160508
v -4.310892 1.977338 -0.160508
v 4.312508 1.977338 -0.109762
v 4.312508 0.502735 -0.109762
v -4.312483 0.502736 0.109787
v 4.310917 0.502735 0.160533
v 4.310918 1.977338 0.160533
v -4.312483 1.977338 0.109787
v -4.310892 0.502736 -0.160508
v 4.312508 0.502735 -0.109762
v 4.310917 0.502735 0.160533
v -4.312483 0.502736 0.109787
v 4.312508 0.502735 -0.109762
v 4.312508 1.977338 -0.109762
v 4.310918 1.977338 0.160533
v 4.310917 0.502735 0.160533
v 4.312508 1.977338 -0.109762
v -4.310892 1.977338 -0.160508
v -4.312483 1.977338 0.109787
v 4.310918 1.977338 0.160533
v -4.310892 1.977338 -0.160508
v -4.310892 0.502736 -0.160508
v -4.312483 0.502736 0.109787
v -4.312483 1.977338 0.109787
v -0.154015 0.0 -0.078125
v -0.154015 2.177138 -0.078125
v 0.154899 2.177138 -0.076307
v 0.154899 -0.0 -0.076307
v -0.154924 0.0 0.076332
v 0.15399 -0.0 0.07815
v 0.15399 2.177138 0.07815
v -0.154924 2.177138 0.076332
v -0.154015 0.0 -0.078125
v 0.154899 -0.0 -0.076307
v 0.15399 -0.0 0.07815
v -0.154924 0.0 0.076332
v 0.154899 -0.0 -0.076307
v 0.154899 2.177138 -0.076307
v 0.15399 2.177138 0.07815
v 0.15399 -0.0 0.07815
v 0.154899 2.177138 -0.076307
v -0.154015 2.177138 -0.078125
v -0.154924 2.177138 0.076332
v 0.15399 2.177138 0.07815
v -0.154015 2.177138 -0.078125
v -0.154015 0.0 -0.078125
v -0.154924 0.0 0.076332
v -0.154924 2.177138 0.076332

# 72 Texture Coordinates
vt 0.524416 0.01
vt 0.524416 0.332368
vt 0.01 0.332368
vt 0.01 0.332368
vt 0.01 0.01
vt 0.524416 0.01
vt 0.008612 0.357678
vt 0.97849 0.349214
vt 0.981303 0.671569
vt 0.981303 0.671569
vt 0.011425 0.680033
vt 0.008612 0.357678
vt 0.524416 0.910826
vt 0.01 0.910826
vt 0.01 0.862814
vt 0.01 0.862814
vt 0.524416 0.862814
vt 0.524416 0.910826
vt 0.867856 0.058012
vt 0.545489 0.058012
vt 0.545489 0.01
vt 0.545489 0.01
vt 0.867856 0.01
vt 0.867856 0.058012
vt 0.524416 0.979911
vt 0.01 0.979911
vt 0.01 0.931899
vt 0.01 0.931899
vt 0.524416 0.931899
vt 0.524416 0.979911
vt 0.87548 0.222302
vt 0.553112 0.222302
vt 0.553112 0.17429
vt 0.553112 0.17429
vt 0.87548 0.17429
vt 0.87548 0.222302
vt 0.485952 0.834718
vt 0.01 0.834718
vt 0.01 0.779847
vt 0.01 0.779847
vt 0.485952 0.779847
vt 0.485952 0.834718
vt 0.01 0.751751
vt 0.01 0.69688
vt 0.485952 0.69688
vt 0.485952 0.69688
vt 0.485952 0.751751
vt 0.01 0.751751
vt 0.60036 0.89025
vt 0.545489 0.89025
vt 0.545489 0.862814
vt 0.545489 0.862814
vt 0.60036 0.862814
vt 0.60036 0.89025
vt 0.99 0.807283
vt 0.514048 0.807283
vt 0.514048 0.779847
vt 0.514048 0.779847
vt 0.99 0.779847
vt 0.99 0.807283
vt 0.60036 0.959334
vt 0.545489 0.959334
vt 0.545489 0.931899
vt 0.545489 0.931899
vt 0.60036 0.931899
vt 0.60036 0.959334
vt 0.991906 0.74528
vt 0.515954 0.74528
vt 0.515954 0.717844
vt 0.515954 0.717844
vt 0.991906 0.717844
vt 0.991906 0.74528

# 72 Vertex Normals
vn 0.005885 0.0 -0.999983
vn 0.005885 0.0 -0.999983
vn 0.005885 0.0 -0.999983
vn 0.005885 0.0 -0.999983
vn 0.005885 0.0 -0.999983
vn 0.005885 0.0 -0.999983
vn -0.005885 0.0 0.999983
vn -0.005885 0.0 0.999983
vn -0.005885 0.0 0.999983
vn -0.005885 0.0 0.999983
vn -0.005885 0.0 0.999983
vn -0.005885 0.0 0.999983
vn -0.0 -1.0 -0.0
vn -0.0 -1.0 -0.0
vn -0.0 -1.0 -0.0
vn -0.0 -1.0 -0.0
vn -0.0 -1.0 -0.0
vn -0.0 -1.0 -0.0
vn 0.999983 -0.0 0.005885
vn 0.999983 0.0 0.005883
vn 0.999983 -0.0 0.005885
vn 0.999983 -0.0 0.005885
vn 0.999983 -0.000001 0.005887
vn 0.999983 -0.0 0.005885
vn -0.0 1.0 0.0
vn -0.0 1.0 0.0
vn -0.0 1.0 0.0
vn -0.0 1.0 0.0
vn -0.0 1.0 0.0
vn -0.0 1.0 0.0
vn -0.999983 0.0 -0.005885
vn -0.999983 0.0 -0.005885
vn -0.999983 0.0 -0.005885
vn -0.999983 0.0 -0.005885
vn -0.999983 0.0 -0.005885
vn -0.999983 0.0 -0.005885
vn 0.005885 0.0 -0.999983
vn 0.005885 0.0 -0.999983
vn 0.005885 0.0 -0.999983
vn 0.005885 0.0 -0.999983
vn 0.005885 0.0 -0.999983
vn 0.005885 0.0 -0.999983
vn -0.005885 0.0 0.999983
vn -0.005885 -0.0 0.999983
vn -0.005885 0.0 0.999983
vn -0.005885 0.0 0.999983
vn -0.005885 0.0 0.999983
vn -0.005885 0.0 0.999983
vn 0.0 -1.0 0.0
vn 0.0 -1.0 0.0
vn 0.0 -1.0 0.0
vn 0.0 -1.0 0.0
vn 0.0 -1.0 0.0
vn 0.0 -1.0 0.0
vn 0.999983 0.0 0.005885
vn 0.999983 0.0 0.005885
vn 0.999983 0.0 0.005885
vn 0.999983 0.0 0.005885
vn 0.999983 0.0 0.005885
vn 0.999983 0.0 0.005885
vn -0.0 1.0 0.0
vn -0.0 1.0 0.0
vn -0.0 1.0 0.0
vn -0.0 1.0 0.0
vn -0.0 1.0 0.0
vn -0.0 1.0 0.0
vn -0.999983 0.0 -0.005885
vn -0.999983 0.0 -0.005885
vn -0.999983 0.0 -0.005885
vn -0.999983 0.0 -0.005885
vn -0.999983 0.0 -0.005885
vn -0.999983 0.0 -0.005885

# SmoothBlockModel12, 24 grouped triangles

usemtl SmoothBlockModel1Mtl
o SmoothBlockModel12
g SmoothBlockModel12

f 1/1/1 2/2/2 3/3/3
f 3/4/4 4/5/5 1/6/6
f 5/7/7 6/8/8 7/9/9
f 7/10/10 8/11/11 5/12/12
f 9/13/13 10/14/14 11/15/15
f 11/16/16 12/17/17 9/18/18
f 13/19/19 14/20/20 15/21/21
f 15/22/22 16/23/23 13/24/24
f 17/25/25 18/26/26 19/27/27
f 19/28/28 20/29/29 17/30/30
f 21/31/31 22/32/32 23/33/33
f 23/34/34 24/35/35 21/36/36
f 25/37/37 26/38/38 27/39/39
f 27/40/40 28/41/41 25/42/42
f 29/43/43 30/44/44 31/45/45
f 31/46/46 32/47/47 29/48/48
f 33/49/49 34/50/50 35/51/51
f 35/52/52 36/53/53 33/54/54
f 37/55/55 38/56/56 39/57/57
f 39/58/58 40/59/59 37/60/60
f 41/61/61 42/62/62 43/63/63
f 43/64/64 44/65/65 41/66/66
f 45/67/67 46/68/68 47/69/69
f 47/70/70 48/71/71 45/72/72
